<?xml version="1.0" encoding="utf-8"?>
<!-- Svg Vector Icons : http://www.sfont.cn -->
<!DOCTYPE svg PUBLIC "-//W3C//DTD SVG 1.1//EN" "http://www.w3.org/Graphics/SVG/1.1/DTD/svg11.dtd">
<svg version="1.1" xmlns="http://www.w3.org/2000/svg" xmlns:xlink="http://www.w3.org/1999/xlink" x="0px" y="0px" viewBox="0 0 1000 1000" enable-background="new 0 0 1000 1000" xml:space="preserve">
<metadata> Svg Vector Icons : http://www.sfont.cn </metadata>
<g><path d="M501.2,10.9C772.4,11.2,990.6,230,990,501.1c-0.6,272-219.6,488.6-493.4,488C227.5,988.4,9.4,768.8,10,499C10.6,228.4,229.7,10.6,501.2,10.9z M499.1,868.4c204.9,0.6,368.2-161,369.4-365.5c1.2-206.9-162.4-371.9-368.7-371.7c-203.9,0.1-367.6,163.3-368.4,367.3C130.7,704.1,293.3,867.7,499.1,868.4z"/><path d="M743.3,561.1c-63.3,0-425.4-0.3-486.4-0.3c0-40.9,0-79.6,0-120.6c59.6,0,423.4,0.3,486.4,0.3"/></g>
</svg>