<?xml version="1.0" encoding="utf-8"?>
<!-- Svg Vector Icons : http://www.sfont.cn -->
<!DOCTYPE svg PUBLIC "-//W3C//DTD SVG 1.1//EN" "http://www.w3.org/Graphics/SVG/1.1/DTD/svg11.dtd">
<svg version="1.1" xmlns="http://www.w3.org/2000/svg" xmlns:xlink="http://www.w3.org/1999/xlink" x="0px" y="0px" viewBox="0 0 1000 1000" enable-background="new 0 0 1000 1000" xml:space="preserve">
<metadata> Svg Vector Icons : http://www.sfont.cn </metadata>
<g><path d="M500,10C229.4,10,10,229.4,10,500c0,270.6,219.4,490,490,490c270.6,0,490-219.4,490-490C990,229.4,770.6,10,500,10L500,10z M481.1,762.1c31.9,3.7,101.1-80.1,116.1-78.3c5.3,0.6,12,7.9,10.9,17.5c-3.6,30.9-143.6,148.5-251.2,136c-38.4-4.5-62.9-25.7-58.2-66.2c6-51.2,52.4-134.3,61.9-151.6L457,440.7c9.7-18.3,1.2-29-7.3-30c-39.4-4.6-101.4,82.2-120.5,79.9c-7.5-0.9-13-9.1-12.3-15.5c2.2-19.2,54.3-58.5,69.8-70.7c47.3-35.6,106.4-60,168.2-52.8c45.8,5.3,91.6,38.7,41.2,137.7L495.1,688.1c-8.2,15.2-23.1,40.5-25.1,57.6C469.2,753.2,472.6,761.1,481.1,762.1L481.1,762.1z M701.4,243.3c-5.7,49.1-50.4,80.6-98.4,75c-43.7-5.1-69.1-37.2-64.1-80.9c5.5-46.9,50.4-80.5,97.3-75.1C678.9,167.3,706.4,199.6,701.4,243.3L701.4,243.3z"/></g>
</svg>