<?xml version="1.0" encoding="utf-8"?>
<!-- Svg Vector Icons : http://www.sfont.cn -->
<!DOCTYPE svg PUBLIC "-//W3C//DTD SVG 1.1//EN" "http://www.w3.org/Graphics/SVG/1.1/DTD/svg11.dtd">
<svg version="1.1" xmlns="http://www.w3.org/2000/svg" xmlns:xlink="http://www.w3.org/1999/xlink" x="0px" y="0px" viewBox="0 0 1000 1000" enable-background="new 0 0 1000 1000" xml:space="preserve">
<metadata> Svg Vector Icons : http://www.sfont.cn </metadata>
<g><path d="M936.1,601.5l37.7-44.4c10.8-12.2,16.2-23.6,16.2-34.4l0,0c0-10.4-4.6-17.9-13.8-22.4c-9.2-4.5-19.7-6.8-31.6-6.8H377.2c-22.9,0-47.9,6.2-74.8,18.5c-26.9,12.3-47.9,27.4-62.8,45.1L64.2,763.6c-10.8,12.2-16.2,23.6-16.2,34.4c0,10.4,4.6,17.9,13.8,22.4c9.2,4.5,19.7,6.8,31.6,6.8h486.1c-3.3-15.3-5.1-31.3-5.1-47.6c0-124.1,100.6-224.6,224.7-224.6C850.7,555,898.2,572.3,936.1,601.5z M811.1,343.3v83.4H377.2c-32.7,0-66.9,8.3-102.7,24.8c-35.8,16.5-64.3,37.3-85.5,62.3L13.1,720.3l-2.6,3.1c0-1.4-0.1-3.6-0.3-6.5s-0.3-5.1-0.3-6.5V209.7c0-32,11.5-59.5,34.4-82.4s50.4-34.4,82.4-34.4h166.9c32,0,59.5,11.5,82.4,34.4s34.4,50.4,34.4,82.4v16.7h283.7c32,0,59.5,11.5,82.4,34.4S811.1,311.3,811.1,343.3L811.1,343.3z M835.8,744v-57.9c0-25.6-10.3-46.3-35.9-46.3c-25.6,0-33.7,20.8-33.7,46.3V744h-46.3c-25.6,0-46.4,9.6-46.4,35.2c0,25.6,20.8,34.4,46.4,34.4h46.3v47.1c0,25.6,8.1,46.3,33.7,46.3c25.6,0,35.9-20.8,35.9-46.3v-47.1h47.1c25.6,0,46.3-8.8,46.3-34.4c0-25.6-20.7-35.2-46.3-35.2H835.8z"/></g>
</svg>