<?xml version="1.0" encoding="utf-8"?>
<!-- Svg Vector Icons : http://www.sfont.cn -->
<!DOCTYPE svg PUBLIC "-//W3C//DTD SVG 1.1//EN" "http://www.w3.org/Graphics/SVG/1.1/DTD/svg11.dtd">
<svg version="1.1" xmlns="http://www.w3.org/2000/svg" xmlns:xlink="http://www.w3.org/1999/xlink" x="0px" y="0px" viewBox="0 0 1000 1000" enable-background="new 0 0 1000 1000" xml:space="preserve">
<metadata> Svg Vector Icons : http://www.sfont.cn </metadata>
<g><path d="M990,562.6c0,10.8-5.4,22.3-16.2,34.4L798.6,803.5c-14.9,17.7-35.9,32.8-62.8,45.1c-26.9,12.3-51.9,18.5-74.8,18.5H93.4c-11.8,0-22.3-2.3-31.6-6.8c-9.2-4.5-13.8-12-13.8-22.4c0-10.8,5.4-22.3,16.2-34.4L239.5,597c15-17.7,35.9-32.8,62.8-45.1c26.9-12.3,51.9-18.5,74.8-18.5h567.4c11.8,0,22.3,2.3,31.6,6.8C985.4,544.7,990,552.2,990,562.6L990,562.6z M811.1,383.2v83.4H377.2c-32.7,0-66.9,8.3-102.7,24.8c-35.8,16.5-64.3,37.3-85.5,62.3L13.1,760.3l-2.6,3.1c0-1.4-0.1-3.6-0.3-6.5c-0.2-3-0.3-5.1-0.3-6.5V249.7c0-32,11.5-59.5,34.4-82.4c22.9-22.9,50.4-34.4,82.4-34.4h166.9c32,0,59.5,11.5,82.4,34.4c22.9,22.9,34.4,50.4,34.4,82.4v16.7h283.7c32,0,59.5,11.5,82.4,34.4S811.1,351.2,811.1,383.2L811.1,383.2z"/></g>
</svg>